<svg width="298" height="298" viewBox="0 0 298 298" fill="none" xmlns="http://www.w3.org/2000/svg">
<circle cx="149" cy="149" r="149" fill="#DF0000"/>
<path d="M93.65 206H77.9C74.5 206 72.25 205.45 71.15 204.35C70.15 203.25 69.65 200.95 69.65 197.45V103.55C69.65 101.75 70.15 100.3 71.15 99.2C72.15 98.1 73.45 97.55 75.05 97.55H93.65V206ZM99.65 97.55H118.7C128.2 97.55 134.5 99.8 137.6 104.3C140.8 108.7 142.4 117.6 142.4 131C142.4 139.9 141.4 146.85 139.4 151.85C137.5 156.85 134.95 160.2 131.75 161.9C128.55 163.5 124.2 164.3 118.7 164.3H99.65V150.05H110.75C113.35 150.05 115 149.7 115.7 149C116.5 148.3 116.9 147.2 116.9 145.7V116.3C116.9 114.7 116.5 113.55 115.7 112.85C115 112.15 113.35 111.8 110.75 111.8H99.65V97.55ZM183.78 206H181.98C177.98 206 174.63 205.7 171.93 205.1C169.33 204.5 167.03 203.3 165.03 201.5C163.13 199.6 161.63 197.5 160.53 195.2C159.53 192.9 158.73 189.45 158.13 184.85C157.23 177.95 156.78 168.7 156.78 157.1C156.78 145.4 156.83 137.15 156.93 132.35C157.13 127.55 157.53 122.9 158.13 118.4C158.73 113.8 159.53 110.4 160.53 108.2C161.63 105.9 163.13 103.85 165.03 102.05C167.03 100.15 169.33 98.95 171.93 98.45C174.63 97.85 177.98 97.55 181.98 97.55H183.78V206ZM189.78 97.55H208.83C216.13 97.55 221.63 98.8 225.33 101.3C229.13 103.8 231.03 108.15 231.03 114.35V127.85C231.03 129.95 230.33 131 228.93 131H210.03C208.63 131 207.78 130.8 207.48 130.4C207.18 130 207.03 129.15 207.03 127.85V116.15C207.03 114.55 206.78 113.45 206.28 112.85C205.88 112.15 204.78 111.8 202.98 111.8H189.78V97.55ZM210.03 172.55H228.93C230.33 172.55 231.03 173.6 231.03 175.7V189.2C231.03 195.4 229.13 199.75 225.33 202.25C221.63 204.75 216.13 206 208.83 206H189.78V191.75H202.98C204.78 191.75 205.88 191.45 206.28 190.85C206.78 190.15 207.03 189 207.03 187.4V175.7C207.03 174.4 207.18 173.55 207.48 173.15C207.78 172.75 208.63 172.55 210.03 172.55Z" fill="white"/>
</svg>
